<?xml version="1.0" encoding="UTF-8"?>
<svg width="80" height="80" viewBox="0 0 80 80" fill="none" xmlns="http://www.w3.org/2000/svg">
  <!-- Sage App Icon - Green rounded square with leaf -->
  <defs>
    <!-- Gradient for the background -->
    <linearGradient id="bgGradient" x1="0%" y1="0%" x2="100%" y2="100%">
      <stop offset="0%" style="stop-color:#5bec13;stop-opacity:1" />
      <stop offset="100%" style="stop-color:#22c55e;stop-opacity:1" />
    </linearGradient>
    <!-- Drop shadow filter -->
    <filter id="shadow" x="-20%" y="-20%" width="140%" height="140%">
      <feDropShadow dx="0" dy="4" stdDeviation="8" flood-color="#5bec13" flood-opacity="0.3"/>
    </filter>
  </defs>

  <!-- Background rounded square -->
  <rect x="4" y="4" width="72" height="72" rx="16" ry="16" fill="url(#bgGradient)" filter="url(#shadow)"/>

  <!-- Leaf icon (dark color on green background) -->
  <g transform="translate(16, 12)">
    <!-- Center leaf (tallest) -->
    <path d="M24 6C24 6 18 15 18 24C18 33 24 39 24 39C24 39 30 33 30 24C30 15 24 6 24 6Z" fill="#162210"/>
    <!-- Left leaf -->
    <path d="M15 15C15 15 9 21 9 27C9 33 15 36 15 36C15 36 18 30 18 24C18 21 17 18 15 15Z" fill="#162210"/>
    <!-- Right leaf -->
    <path d="M33 15C33 15 39 21 39 27C39 33 33 36 33 36C33 36 30 30 30 24C30 21 31 18 33 15Z" fill="#162210"/>
  </g>
</svg>
